<mxfile host="app.diagrams.net" agent="Mozilla/5.0 (Windows NT 10.0; Win64; x64) AppleWebKit/537.36 (KHTML, like Gecko) Chrome/136.0.0.0 Safari/537.36" version="27.0.2">
  <diagram name="Página-1" id="TdQatwvxKdCJxrZPbZy2">
    <mxGraphModel dx="1196" dy="743" grid="1" gridSize="10" guides="1" tooltips="1" connect="1" arrows="1" fold="1" page="1" pageScale="1" pageWidth="827" pageHeight="1169" math="0" shadow="0">
      <root>
        <mxCell id="0" />
        <mxCell id="1" parent="0" />
        <mxCell id="56zbXbjP5MMYhylMdoNp-4" value="" style="edgeStyle=orthogonalEdgeStyle;rounded=0;orthogonalLoop=1;jettySize=auto;html=1;labelBackgroundColor=none;strokeColor=#E07A5F;fontColor=default;" edge="1" parent="1" source="56zbXbjP5MMYhylMdoNp-1" target="56zbXbjP5MMYhylMdoNp-2">
          <mxGeometry relative="1" as="geometry" />
        </mxCell>
        <mxCell id="56zbXbjP5MMYhylMdoNp-1" value="&lt;span style=&quot;color: rgb(250, 250, 252); font-family: system-ui, ui-sans-serif, -apple-system, BlinkMacSystemFont, sans-serif, Inter, NotoSansHans; font-size: 16px; letter-spacing: 0.32px; text-align: left; white-space-collapse: preserve-breaks; background-color: rgb(43, 43, 49);&quot;&gt;&lt;span style=&quot;font-family: Consolas, &amp;quot;Courier New&amp;quot;, monospace; font-size: 14px; white-space: pre; letter-spacing: 0.32px; color: rgb(220, 220, 170);&quot;&gt;Inicio: obtener_datos_paises&lt;/span&gt;&lt;span style=&quot;background-color: rgb(31, 31, 31); color: rgb(204, 204, 204); font-family: Consolas, &amp;quot;Courier New&amp;quot;, monospace; font-size: 14px; white-space: pre; letter-spacing: 0.32px;&quot;&gt;()&lt;/span&gt;&lt;/span&gt;" style="ellipse;whiteSpace=wrap;html=1;labelBackgroundColor=none;fillColor=#F2CC8F;strokeColor=#E07A5F;fontColor=#393C56;rounded=0;" vertex="1" parent="1">
          <mxGeometry x="216.5" y="60" width="373" height="80" as="geometry" />
        </mxCell>
        <mxCell id="56zbXbjP5MMYhylMdoNp-6" value="" style="edgeStyle=orthogonalEdgeStyle;rounded=0;orthogonalLoop=1;jettySize=auto;html=1;labelBackgroundColor=none;strokeColor=#E07A5F;fontColor=default;" edge="1" parent="1" source="56zbXbjP5MMYhylMdoNp-2" target="56zbXbjP5MMYhylMdoNp-5">
          <mxGeometry relative="1" as="geometry" />
        </mxCell>
        <mxCell id="56zbXbjP5MMYhylMdoNp-2" value="&lt;span style=&quot;color: rgb(250, 250, 252); font-family: system-ui, ui-sans-serif, -apple-system, BlinkMacSystemFont, sans-serif, Inter, NotoSansHans; font-size: 16px; letter-spacing: 0.32px; text-align: left; white-space-collapse: preserve-breaks; background-color: rgb(43, 43, 49);&quot;&gt;Enviar solicitud GET a la URL de REST Countries&lt;/span&gt;" style="rounded=0;whiteSpace=wrap;html=1;labelBackgroundColor=none;fillColor=#F2CC8F;strokeColor=#E07A5F;fontColor=#393C56;" vertex="1" parent="1">
          <mxGeometry x="220" y="170" width="366" height="60" as="geometry" />
        </mxCell>
        <mxCell id="56zbXbjP5MMYhylMdoNp-9" value="" style="edgeStyle=orthogonalEdgeStyle;rounded=0;orthogonalLoop=1;jettySize=auto;html=1;labelBackgroundColor=none;strokeColor=#E07A5F;fontColor=default;" edge="1" parent="1" source="56zbXbjP5MMYhylMdoNp-5" target="56zbXbjP5MMYhylMdoNp-8">
          <mxGeometry relative="1" as="geometry" />
        </mxCell>
        <mxCell id="56zbXbjP5MMYhylMdoNp-14" value="" style="edgeStyle=orthogonalEdgeStyle;rounded=0;orthogonalLoop=1;jettySize=auto;html=1;labelBackgroundColor=none;strokeColor=#E07A5F;fontColor=default;" edge="1" parent="1" source="56zbXbjP5MMYhylMdoNp-5" target="56zbXbjP5MMYhylMdoNp-13">
          <mxGeometry relative="1" as="geometry" />
        </mxCell>
        <mxCell id="56zbXbjP5MMYhylMdoNp-5" value="&lt;span style=&quot;color: rgb(250, 250, 252); font-family: system-ui, ui-sans-serif, -apple-system, BlinkMacSystemFont, sans-serif, Inter, NotoSansHans; font-size: 16px; letter-spacing: 0.32px; text-align: left; white-space-collapse: preserve-breaks; background-color: rgb(43, 43, 49);&quot;&gt;¿Ocurrió excepción?&lt;/span&gt;" style="rhombus;whiteSpace=wrap;html=1;labelBackgroundColor=none;fillColor=#F2CC8F;strokeColor=#E07A5F;fontColor=#393C56;rounded=0;" vertex="1" parent="1">
          <mxGeometry x="275" y="270" width="256" height="90" as="geometry" />
        </mxCell>
        <mxCell id="56zbXbjP5MMYhylMdoNp-7" value="No" style="text;html=1;align=center;verticalAlign=middle;whiteSpace=wrap;rounded=0;labelBackgroundColor=none;fontColor=#393C56;" vertex="1" parent="1">
          <mxGeometry x="531" y="280" width="60" height="30" as="geometry" />
        </mxCell>
        <mxCell id="56zbXbjP5MMYhylMdoNp-11" value="" style="edgeStyle=orthogonalEdgeStyle;rounded=0;orthogonalLoop=1;jettySize=auto;html=1;labelBackgroundColor=none;strokeColor=#E07A5F;fontColor=default;" edge="1" parent="1" source="56zbXbjP5MMYhylMdoNp-8" target="56zbXbjP5MMYhylMdoNp-10">
          <mxGeometry relative="1" as="geometry" />
        </mxCell>
        <mxCell id="56zbXbjP5MMYhylMdoNp-8" value="&lt;span style=&quot;color: rgb(250, 250, 252); font-family: system-ui, ui-sans-serif, -apple-system, BlinkMacSystemFont, sans-serif, Inter, NotoSansHans; font-size: 16px; letter-spacing: 0.32px; text-align: left; white-space-collapse: preserve-breaks; background-color: rgb(43, 43, 49);&quot;&gt;Parsear respuesta JSON&lt;/span&gt;" style="rounded=0;whiteSpace=wrap;html=1;labelBackgroundColor=none;fillColor=#F2CC8F;strokeColor=#E07A5F;fontColor=#393C56;" vertex="1" parent="1">
          <mxGeometry x="569" y="370" width="190" height="65" as="geometry" />
        </mxCell>
        <mxCell id="56zbXbjP5MMYhylMdoNp-18" value="" style="edgeStyle=orthogonalEdgeStyle;rounded=0;orthogonalLoop=1;jettySize=auto;html=1;labelBackgroundColor=none;strokeColor=#E07A5F;fontColor=default;" edge="1" parent="1" source="56zbXbjP5MMYhylMdoNp-10" target="56zbXbjP5MMYhylMdoNp-17">
          <mxGeometry relative="1" as="geometry" />
        </mxCell>
        <mxCell id="56zbXbjP5MMYhylMdoNp-10" value="&lt;span style=&quot;color: rgb(250, 250, 252); font-family: system-ui, ui-sans-serif, -apple-system, BlinkMacSystemFont, sans-serif, Inter, NotoSansHans; font-size: 16px; letter-spacing: 0.32px; text-align: left; white-space-collapse: preserve-breaks; background-color: rgb(43, 43, 49);&quot;&gt;Retornar lista de datos de países&lt;/span&gt;" style="shape=parallelogram;perimeter=parallelogramPerimeter;whiteSpace=wrap;html=1;fixedSize=1;labelBackgroundColor=none;fillColor=#F2CC8F;strokeColor=#E07A5F;fontColor=#393C56;rounded=0;" vertex="1" parent="1">
          <mxGeometry x="524" y="480" width="280" height="60" as="geometry" />
        </mxCell>
        <mxCell id="56zbXbjP5MMYhylMdoNp-12" value="Si" style="text;html=1;align=center;verticalAlign=middle;whiteSpace=wrap;rounded=0;labelBackgroundColor=none;fontColor=#393C56;" vertex="1" parent="1">
          <mxGeometry x="409" y="360" width="60" height="30" as="geometry" />
        </mxCell>
        <mxCell id="56zbXbjP5MMYhylMdoNp-16" value="" style="edgeStyle=orthogonalEdgeStyle;rounded=0;orthogonalLoop=1;jettySize=auto;html=1;labelBackgroundColor=none;strokeColor=#E07A5F;fontColor=default;" edge="1" parent="1" source="56zbXbjP5MMYhylMdoNp-13" target="56zbXbjP5MMYhylMdoNp-15">
          <mxGeometry relative="1" as="geometry" />
        </mxCell>
        <mxCell id="56zbXbjP5MMYhylMdoNp-13" value="&lt;span style=&quot;color: rgb(250, 250, 252); font-family: system-ui, ui-sans-serif, -apple-system, BlinkMacSystemFont, sans-serif, Inter, NotoSansHans; font-size: 16px; letter-spacing: 0.32px; text-align: left; white-space-collapse: preserve-breaks; background-color: rgb(43, 43, 49);&quot;&gt;Imprimir mensaje de error&lt;/span&gt;" style="rounded=0;whiteSpace=wrap;html=1;labelBackgroundColor=none;fillColor=#F2CC8F;strokeColor=#E07A5F;fontColor=#393C56;" vertex="1" parent="1">
          <mxGeometry x="301" y="400" width="204" height="60" as="geometry" />
        </mxCell>
        <mxCell id="56zbXbjP5MMYhylMdoNp-15" value="&lt;span style=&quot;color: rgb(250, 250, 252); font-family: system-ui, ui-sans-serif, -apple-system, BlinkMacSystemFont, sans-serif, Inter, NotoSansHans; font-size: 16px; letter-spacing: 0.32px; text-align: left; white-space-collapse: preserve-breaks; background-color: rgb(43, 43, 49);&quot;&gt;Retornar None&lt;/span&gt;" style="shape=parallelogram;perimeter=parallelogramPerimeter;whiteSpace=wrap;html=1;fixedSize=1;labelBackgroundColor=none;fillColor=#F2CC8F;strokeColor=#E07A5F;fontColor=#393C56;rounded=0;" vertex="1" parent="1">
          <mxGeometry x="326" y="500" width="154" height="60" as="geometry" />
        </mxCell>
        <mxCell id="56zbXbjP5MMYhylMdoNp-17" value="&lt;span style=&quot;color: rgb(250, 250, 252); font-family: system-ui, ui-sans-serif, -apple-system, BlinkMacSystemFont, sans-serif, Inter, NotoSansHans; font-size: 16px; letter-spacing: 0.32px; text-align: left; white-space-collapse: preserve-breaks; background-color: rgb(43, 43, 49);&quot;&gt;Fin:&amp;nbsp;&lt;span style=&quot;letter-spacing: 0.32px; font-family: Consolas, &amp;quot;Courier New&amp;quot;, monospace; font-size: 14px; white-space: pre; color: rgb(220, 220, 170);&quot;&gt;obtener_datos_paises&lt;/span&gt;&lt;span style=&quot;letter-spacing: 0.32px; background-color: rgb(31, 31, 31); color: rgb(204, 204, 204); font-family: Consolas, &amp;quot;Courier New&amp;quot;, monospace; font-size: 14px; white-space: pre;&quot;&gt;()&lt;/span&gt;&lt;/span&gt;" style="ellipse;whiteSpace=wrap;html=1;labelBackgroundColor=none;fillColor=#F2CC8F;strokeColor=#E07A5F;fontColor=#393C56;rounded=0;" vertex="1" parent="1">
          <mxGeometry x="546" y="585" width="236" height="100" as="geometry" />
        </mxCell>
        <mxCell id="56zbXbjP5MMYhylMdoNp-25" value="" style="edgeStyle=orthogonalEdgeStyle;rounded=0;orthogonalLoop=1;jettySize=auto;html=1;strokeColor=#E07A5F;fontColor=default;fillColor=#F2CC8F;labelBackgroundColor=none;" edge="1" parent="1" source="56zbXbjP5MMYhylMdoNp-19" target="56zbXbjP5MMYhylMdoNp-23">
          <mxGeometry relative="1" as="geometry" />
        </mxCell>
        <mxCell id="56zbXbjP5MMYhylMdoNp-19" value="&lt;font style=&quot;color: light-dark(rgb(0, 0, 0), rgb(205, 162, 190));&quot;&gt;Diagrama de Flujo&lt;/font&gt;" style="text;html=1;align=center;verticalAlign=middle;whiteSpace=wrap;rounded=0;fontColor=#393C56;labelBackgroundColor=none;" vertex="1" parent="1">
          <mxGeometry x="174" y="15" width="103" height="30" as="geometry" />
        </mxCell>
        <mxCell id="56zbXbjP5MMYhylMdoNp-23" value="&lt;div style=&quot;color: rgb(204, 204, 204); background-color: rgb(31, 31, 31); font-family: Consolas, &amp;quot;Courier New&amp;quot;, monospace; font-size: 14px; line-height: 19px; white-space: pre;&quot;&gt;&lt;span style=&quot;color: #569cd6;&quot;&gt;def&lt;/span&gt; &lt;span style=&quot;color: #dcdcaa;&quot;&gt;obtener_datos_paises&lt;/span&gt;():&lt;/div&gt;" style="text;html=1;align=center;verticalAlign=middle;whiteSpace=wrap;rounded=0;fontColor=#393C56;labelBackgroundColor=none;" vertex="1" parent="1">
          <mxGeometry x="323" y="10" width="220" height="40" as="geometry" />
        </mxCell>
        <mxCell id="56zbXbjP5MMYhylMdoNp-26" value="" style="edgeStyle=orthogonalEdgeStyle;rounded=0;orthogonalLoop=1;jettySize=auto;html=1;strokeColor=#E07A5F;fontColor=default;fillColor=#F2CC8F;labelBackgroundColor=none;" edge="1" parent="1" source="56zbXbjP5MMYhylMdoNp-27" target="56zbXbjP5MMYhylMdoNp-28">
          <mxGeometry relative="1" as="geometry" />
        </mxCell>
        <mxCell id="56zbXbjP5MMYhylMdoNp-27" value="&lt;font style=&quot;color: light-dark(rgb(0, 0, 0), rgb(205, 162, 190));&quot;&gt;Diagrama de Flujo&lt;/font&gt;" style="text;html=1;align=center;verticalAlign=middle;whiteSpace=wrap;rounded=0;fontColor=#393C56;labelBackgroundColor=none;" vertex="1" parent="1">
          <mxGeometry x="174" y="725" width="103" height="30" as="geometry" />
        </mxCell>
        <mxCell id="56zbXbjP5MMYhylMdoNp-28" value="&lt;div style=&quot;color: rgb(204, 204, 204); background-color: rgb(31, 31, 31); font-family: Consolas, &amp;quot;Courier New&amp;quot;, monospace; font-size: 14px; line-height: 19px; white-space: pre;&quot;&gt;&lt;div style=&quot;color: rgb(204, 204, 204); background-color: rgb(31, 31, 31); line-height: 19px;&quot;&gt;&lt;span style=&quot;color: rgb(86, 156, 214);&quot;&gt;def&lt;/span&gt; &lt;span style=&quot;color: rgb(220, 220, 170);&quot;&gt;estructurar_datos_paises&lt;/span&gt;(&lt;span style=&quot;color: rgb(156, 220, 254);&quot;&gt;datos&lt;/span&gt;):&lt;/div&gt;&lt;div style=&quot;color: rgb(204, 204, 204); background-color: rgb(31, 31, 31); line-height: 19px;&quot;&gt;&lt;span style=&quot;color: rgb(86, 156, 214);&quot;&gt;def&lt;/span&gt;&lt;span style=&quot;background-color: rgb(31, 31, 31); color: rgb(204, 204, 204);&quot;&gt; &lt;/span&gt;&lt;span style=&quot;color: rgb(220, 220, 170);&quot;&gt;calcular_densidad&lt;/span&gt;&lt;span style=&quot;background-color: rgb(31, 31, 31); color: rgb(204, 204, 204);&quot;&gt;(&lt;/span&gt;&lt;span style=&quot;color: rgb(156, 220, 254);&quot;&gt;poblacion&lt;/span&gt;&lt;span style=&quot;background-color: rgb(31, 31, 31); color: rgb(204, 204, 204);&quot;&gt;, &lt;/span&gt;&lt;span style=&quot;color: rgb(156, 220, 254);&quot;&gt;area&lt;/span&gt;&lt;span style=&quot;background-color: rgb(31, 31, 31); color: rgb(204, 204, 204);&quot;&gt;):&lt;/span&gt;&lt;/div&gt;&lt;/div&gt;" style="text;html=1;align=center;verticalAlign=middle;whiteSpace=wrap;rounded=0;fontColor=#393C56;labelBackgroundColor=none;" vertex="1" parent="1">
          <mxGeometry x="332.5" y="710" width="321" height="60" as="geometry" />
        </mxCell>
        <mxCell id="56zbXbjP5MMYhylMdoNp-32" value="" style="edgeStyle=orthogonalEdgeStyle;rounded=0;orthogonalLoop=1;jettySize=auto;html=1;strokeColor=#E07A5F;fontColor=default;fillColor=#F2CC8F;labelBackgroundColor=none;" edge="1" parent="1" source="56zbXbjP5MMYhylMdoNp-33" target="56zbXbjP5MMYhylMdoNp-34">
          <mxGeometry relative="1" as="geometry" />
        </mxCell>
        <mxCell id="56zbXbjP5MMYhylMdoNp-33" value="&lt;font style=&quot;color: light-dark(rgb(0, 0, 0), rgb(205, 162, 190));&quot;&gt;Diagrama de Flujo&lt;/font&gt;" style="text;html=1;align=center;verticalAlign=middle;whiteSpace=wrap;rounded=0;fontColor=#393C56;labelBackgroundColor=none;" vertex="1" parent="1">
          <mxGeometry x="174" y="1830" width="103" height="30" as="geometry" />
        </mxCell>
        <mxCell id="56zbXbjP5MMYhylMdoNp-34" value="&lt;div style=&quot;color: rgb(204, 204, 204); background-color: rgb(31, 31, 31); font-family: Consolas, &amp;quot;Courier New&amp;quot;, monospace; font-size: 14px; line-height: 19px; white-space: pre;&quot;&gt;&lt;div style=&quot;color: rgb(204, 204, 204); background-color: rgb(31, 31, 31); line-height: 19px;&quot;&gt;&lt;div style=&quot;color: rgb(204, 204, 204); background-color: rgb(31, 31, 31); line-height: 19px;&quot;&gt;&lt;span style=&quot;color: rgb(86, 156, 214);&quot;&gt;def&lt;/span&gt; &lt;span style=&quot;color: rgb(220, 220, 170);&quot;&gt;guardar_datos_json&lt;/span&gt;(&lt;span style=&quot;color: rgb(156, 220, 254);&quot;&gt;datos&lt;/span&gt;, &lt;span style=&quot;color: rgb(156, 220, 254);&quot;&gt;nombre_archivo&lt;/span&gt;&lt;span style=&quot;color: rgb(212, 212, 212);&quot;&gt;=&lt;/span&gt;&lt;span style=&quot;color: rgb(206, 145, 120);&quot;&gt;&quot;datos_paises.json&quot;&lt;/span&gt;):&lt;/div&gt;&lt;div style=&quot;color: rgb(204, 204, 204); background-color: rgb(31, 31, 31); line-height: 19px;&quot;&gt;&lt;span style=&quot;color: rgb(86, 156, 214);&quot;&gt;def&lt;/span&gt;&lt;span style=&quot;background-color: light-dark(rgb(31, 31, 31), rgb(210, 210, 210)); color: light-dark(rgb(204, 204, 204), rgb(62, 62, 62));&quot;&gt; &lt;/span&gt;&lt;span style=&quot;color: rgb(220, 220, 170);&quot;&gt;filtrar_paises_con_regex&lt;/span&gt;&lt;span style=&quot;background-color: light-dark(rgb(31, 31, 31), rgb(210, 210, 210)); color: light-dark(rgb(204, 204, 204), rgb(62, 62, 62));&quot;&gt;(&lt;/span&gt;&lt;span style=&quot;color: rgb(156, 220, 254);&quot;&gt;datos_estructurados&lt;/span&gt;&lt;span style=&quot;background-color: light-dark(rgb(31, 31, 31), rgb(210, 210, 210)); color: light-dark(rgb(204, 204, 204), rgb(62, 62, 62));&quot;&gt;, &lt;/span&gt;&lt;span style=&quot;color: rgb(156, 220, 254);&quot;&gt;patron_regex&lt;/span&gt;&lt;span style=&quot;background-color: light-dark(rgb(31, 31, 31), rgb(210, 210, 210)); color: light-dark(rgb(204, 204, 204), rgb(62, 62, 62));&quot;&gt;):&lt;/span&gt;&lt;/div&gt;&lt;/div&gt;&lt;/div&gt;" style="text;html=1;align=center;verticalAlign=middle;whiteSpace=wrap;rounded=0;fontColor=#393C56;labelBackgroundColor=none;" vertex="1" parent="1">
          <mxGeometry x="332" y="1820" width="527" height="50" as="geometry" />
        </mxCell>
        <mxCell id="56zbXbjP5MMYhylMdoNp-36" value="" style="edgeStyle=orthogonalEdgeStyle;rounded=0;orthogonalLoop=1;jettySize=auto;html=1;strokeColor=#E07A5F;fontColor=default;fillColor=#F2CC8F;labelBackgroundColor=none;" edge="1" parent="1" source="56zbXbjP5MMYhylMdoNp-37" target="56zbXbjP5MMYhylMdoNp-38">
          <mxGeometry relative="1" as="geometry" />
        </mxCell>
        <mxCell id="56zbXbjP5MMYhylMdoNp-37" value="&lt;font style=&quot;color: light-dark(rgb(0, 0, 0), rgb(205, 162, 190));&quot;&gt;Diagrama de Flujo&lt;/font&gt;" style="text;html=1;align=center;verticalAlign=middle;whiteSpace=wrap;rounded=0;fontColor=#393C56;labelBackgroundColor=none;" vertex="1" parent="1">
          <mxGeometry x="174" y="1890" width="103" height="30" as="geometry" />
        </mxCell>
        <mxCell id="56zbXbjP5MMYhylMdoNp-38" value="&lt;div style=&quot;color: rgb(204, 204, 204); background-color: rgb(31, 31, 31); font-family: Consolas, &amp;quot;Courier New&amp;quot;, monospace; font-size: 14px; line-height: 19px; white-space: pre;&quot;&gt;&lt;div style=&quot;color: rgb(204, 204, 204); background-color: rgb(31, 31, 31); line-height: 19px;&quot;&gt;&lt;div style=&quot;color: rgb(204, 204, 204); background-color: rgb(31, 31, 31); line-height: 19px;&quot;&gt;&lt;div style=&quot;color: rgb(204, 204, 204); background-color: rgb(31, 31, 31); line-height: 19px;&quot;&gt;&lt;span style=&quot;color: #569cd6;&quot;&gt;def&lt;/span&gt; &lt;span style=&quot;color: #dcdcaa;&quot;&gt;analizar_estadisticas&lt;/span&gt;(&lt;span style=&quot;color: #9cdcfe;&quot;&gt;datos_estructurados&lt;/span&gt;, &lt;span style=&quot;color: #9cdcfe;&quot;&gt;campo&lt;/span&gt;&lt;span style=&quot;color: #d4d4d4;&quot;&gt;=&lt;/span&gt;&lt;span style=&quot;color: #ce9178;&quot;&gt;&quot;Población&quot;&lt;/span&gt;):&lt;/div&gt;&lt;/div&gt;&lt;/div&gt;&lt;/div&gt;" style="text;html=1;align=center;verticalAlign=middle;whiteSpace=wrap;rounded=0;fontColor=#393C56;labelBackgroundColor=none;" vertex="1" parent="1">
          <mxGeometry x="332.5" y="1885" width="517.5" height="40" as="geometry" />
        </mxCell>
        <mxCell id="56zbXbjP5MMYhylMdoNp-40" value="" style="edgeStyle=orthogonalEdgeStyle;rounded=0;orthogonalLoop=1;jettySize=auto;html=1;strokeColor=#E07A5F;fontColor=default;fillColor=#F2CC8F;labelBackgroundColor=none;" edge="1" parent="1" source="56zbXbjP5MMYhylMdoNp-41" target="56zbXbjP5MMYhylMdoNp-42">
          <mxGeometry relative="1" as="geometry" />
        </mxCell>
        <mxCell id="56zbXbjP5MMYhylMdoNp-41" value="&lt;font style=&quot;color: light-dark(rgb(0, 0, 0), rgb(205, 162, 190));&quot;&gt;Diagrama de Flujo&lt;/font&gt;" style="text;html=1;align=center;verticalAlign=middle;whiteSpace=wrap;rounded=0;fontColor=#393C56;labelBackgroundColor=none;" vertex="1" parent="1">
          <mxGeometry x="174" y="1950" width="103" height="30" as="geometry" />
        </mxCell>
        <mxCell id="56zbXbjP5MMYhylMdoNp-42" value="&lt;div style=&quot;color: rgb(204, 204, 204); background-color: rgb(31, 31, 31); font-family: Consolas, &amp;quot;Courier New&amp;quot;, monospace; font-size: 14px; line-height: 19px; white-space: pre;&quot;&gt;&lt;div style=&quot;color: rgb(204, 204, 204); background-color: rgb(31, 31, 31); line-height: 19px;&quot;&gt;&lt;div style=&quot;color: rgb(204, 204, 204); background-color: rgb(31, 31, 31); line-height: 19px;&quot;&gt;&lt;div style=&quot;color: rgb(204, 204, 204); background-color: rgb(31, 31, 31); line-height: 19px;&quot;&gt;&lt;span style=&quot;color: #569cd6;&quot;&gt;def&lt;/span&gt; &lt;span style=&quot;color: #dcdcaa;&quot;&gt;exportar_datos_excel&lt;/span&gt;(&lt;span style=&quot;color: #9cdcfe;&quot;&gt;datos&lt;/span&gt;, &lt;span style=&quot;color: #9cdcfe;&quot;&gt;nombre_archivo&lt;/span&gt;&lt;span style=&quot;color: #d4d4d4;&quot;&gt;=&lt;/span&gt;&lt;span style=&quot;color: #ce9178;&quot;&gt;&quot;datos_paises.xlsx&quot;&lt;/span&gt;):&lt;/div&gt;&lt;/div&gt;&lt;/div&gt;&lt;/div&gt;" style="text;html=1;align=center;verticalAlign=middle;whiteSpace=wrap;rounded=0;fontColor=#393C56;labelBackgroundColor=none;" vertex="1" parent="1">
          <mxGeometry x="332.5" y="1945" width="537" height="40" as="geometry" />
        </mxCell>
        <mxCell id="56zbXbjP5MMYhylMdoNp-43" value="" style="edgeStyle=orthogonalEdgeStyle;rounded=0;orthogonalLoop=1;jettySize=auto;html=1;strokeColor=#E07A5F;fontColor=default;fillColor=#F2CC8F;labelBackgroundColor=none;" edge="1" parent="1" source="56zbXbjP5MMYhylMdoNp-44" target="56zbXbjP5MMYhylMdoNp-45">
          <mxGeometry relative="1" as="geometry" />
        </mxCell>
        <mxCell id="56zbXbjP5MMYhylMdoNp-44" value="&lt;font style=&quot;color: light-dark(rgb(0, 0, 0), rgb(205, 162, 190));&quot;&gt;Diagrama de Flujo&lt;/font&gt;" style="text;html=1;align=center;verticalAlign=middle;whiteSpace=wrap;rounded=0;fontColor=#393C56;labelBackgroundColor=none;" vertex="1" parent="1">
          <mxGeometry x="174" y="2010" width="103" height="30" as="geometry" />
        </mxCell>
        <mxCell id="56zbXbjP5MMYhylMdoNp-45" value="&lt;div style=&quot;color: rgb(204, 204, 204); background-color: rgb(31, 31, 31); font-family: Consolas, &amp;quot;Courier New&amp;quot;, monospace; font-size: 14px; line-height: 19px; white-space: pre;&quot;&gt;&lt;div style=&quot;color: rgb(204, 204, 204); background-color: rgb(31, 31, 31); line-height: 19px;&quot;&gt;&lt;div style=&quot;color: rgb(204, 204, 204); background-color: rgb(31, 31, 31); line-height: 19px;&quot;&gt;&lt;div style=&quot;color: rgb(204, 204, 204); background-color: rgb(31, 31, 31); line-height: 19px;&quot;&gt;&lt;span style=&quot;color: #569cd6;&quot;&gt;def&lt;/span&gt; &lt;span style=&quot;color: #dcdcaa;&quot;&gt;graficar_datos&lt;/span&gt;(&lt;span style=&quot;color: #9cdcfe;&quot;&gt;datos&lt;/span&gt;, &lt;span style=&quot;color: #9cdcfe;&quot;&gt;tipo_grafico&lt;/span&gt;&lt;span style=&quot;color: #d4d4d4;&quot;&gt;=&lt;/span&gt;&lt;span style=&quot;color: #ce9178;&quot;&gt;&quot;barras&quot;&lt;/span&gt;, &lt;span style=&quot;color: #9cdcfe;&quot;&gt;titulo&lt;/span&gt;&lt;span style=&quot;color: #d4d4d4;&quot;&gt;=&lt;/span&gt;&lt;span style=&quot;color: #ce9178;&quot;&gt;&quot;Gráfico&quot;&lt;/span&gt;, &lt;span style=&quot;color: #9cdcfe;&quot;&gt;eje_x&lt;/span&gt;&lt;span style=&quot;color: #d4d4d4;&quot;&gt;=&lt;/span&gt;&lt;span style=&quot;color: #ce9178;&quot;&gt;&quot;X&quot;&lt;/span&gt;, &lt;span style=&quot;color: #9cdcfe;&quot;&gt;eje_y&lt;/span&gt;&lt;span style=&quot;color: #d4d4d4;&quot;&gt;=&lt;/span&gt;&lt;span style=&quot;color: #ce9178;&quot;&gt;&quot;Y&quot;&lt;/span&gt;, &lt;span style=&quot;color: #9cdcfe;&quot;&gt;campo_x&lt;/span&gt;&lt;span style=&quot;color: #d4d4d4;&quot;&gt;=&lt;/span&gt;&lt;span style=&quot;color: #ce9178;&quot;&gt;&quot;Nombre&quot;&lt;/span&gt;, &lt;span style=&quot;color: #9cdcfe;&quot;&gt;campo_y&lt;/span&gt;&lt;span style=&quot;color: #d4d4d4;&quot;&gt;=&lt;/span&gt;&lt;span style=&quot;color: #ce9178;&quot;&gt;&quot;Población&quot;&lt;/span&gt;):&lt;/div&gt;&lt;/div&gt;&lt;/div&gt;&lt;/div&gt;" style="text;html=1;align=center;verticalAlign=middle;whiteSpace=wrap;rounded=0;fontColor=#393C56;labelBackgroundColor=none;" vertex="1" parent="1">
          <mxGeometry x="332" y="2005" width="1007" height="40" as="geometry" />
        </mxCell>
        <mxCell id="56zbXbjP5MMYhylMdoNp-46" value="" style="edgeStyle=orthogonalEdgeStyle;rounded=0;orthogonalLoop=1;jettySize=auto;html=1;strokeColor=#E07A5F;fontColor=default;fillColor=#F2CC8F;labelBackgroundColor=none;" edge="1" parent="1" source="56zbXbjP5MMYhylMdoNp-47" target="56zbXbjP5MMYhylMdoNp-48">
          <mxGeometry relative="1" as="geometry" />
        </mxCell>
        <mxCell id="56zbXbjP5MMYhylMdoNp-47" value="&lt;font style=&quot;color: light-dark(rgb(0, 0, 0), rgb(205, 162, 190));&quot;&gt;Diagrama de Flujo&lt;/font&gt;" style="text;html=1;align=center;verticalAlign=middle;whiteSpace=wrap;rounded=0;fontColor=#393C56;labelBackgroundColor=none;" vertex="1" parent="1">
          <mxGeometry x="174" y="2070" width="103" height="30" as="geometry" />
        </mxCell>
        <mxCell id="56zbXbjP5MMYhylMdoNp-48" value="&lt;div style=&quot;color: rgb(204, 204, 204); background-color: rgb(31, 31, 31); font-family: Consolas, &amp;quot;Courier New&amp;quot;, monospace; font-size: 14px; line-height: 19px; white-space: pre;&quot;&gt;&lt;div style=&quot;color: rgb(204, 204, 204); background-color: rgb(31, 31, 31); line-height: 19px;&quot;&gt;&lt;div style=&quot;color: rgb(204, 204, 204); background-color: rgb(31, 31, 31); line-height: 19px;&quot;&gt;&lt;div style=&quot;color: rgb(204, 204, 204); background-color: rgb(31, 31, 31); line-height: 19px;&quot;&gt;&lt;span style=&quot;color: #569cd6;&quot;&gt;def&lt;/span&gt; &lt;span style=&quot;color: #dcdcaa;&quot;&gt;interpretar_resultados&lt;/span&gt;(&lt;span style=&quot;color: #9cdcfe;&quot;&gt;estadisticas&lt;/span&gt;, &lt;span style=&quot;color: #9cdcfe;&quot;&gt;datos_originales&lt;/span&gt;&lt;span style=&quot;color: #d4d4d4;&quot;&gt;=&lt;/span&gt;&lt;span style=&quot;color: #569cd6;&quot;&gt;None&lt;/span&gt;, &lt;span style=&quot;color: #9cdcfe;&quot;&gt;campo&lt;/span&gt;&lt;span style=&quot;color: #d4d4d4;&quot;&gt;=&lt;/span&gt;&lt;span style=&quot;color: #ce9178;&quot;&gt;&quot;Población&quot;&lt;/span&gt;):&lt;/div&gt;&lt;/div&gt;&lt;/div&gt;&lt;/div&gt;" style="text;html=1;align=center;verticalAlign=middle;whiteSpace=wrap;rounded=0;fontColor=#393C56;labelBackgroundColor=none;" vertex="1" parent="1">
          <mxGeometry x="332" y="2065" width="647" height="40" as="geometry" />
        </mxCell>
        <mxCell id="56zbXbjP5MMYhylMdoNp-51" value="" style="edgeStyle=orthogonalEdgeStyle;rounded=0;hachureGap=4;orthogonalLoop=1;jettySize=auto;html=1;strokeColor=#E07A5F;fontFamily=Architects Daughter;fontSource=https%3A%2F%2Ffonts.googleapis.com%2Fcss%3Ffamily%3DArchitects%2BDaughter;fontColor=default;fillColor=#F2CC8F;labelBackgroundColor=none;" edge="1" parent="1" source="56zbXbjP5MMYhylMdoNp-49" target="56zbXbjP5MMYhylMdoNp-50">
          <mxGeometry relative="1" as="geometry" />
        </mxCell>
        <mxCell id="56zbXbjP5MMYhylMdoNp-49" value="&lt;span style=&quot;color: rgb(250, 250, 252); font-family: system-ui, ui-sans-serif, -apple-system, BlinkMacSystemFont, sans-serif, Inter, NotoSansHans; font-size: 16px; letter-spacing: 0.32px; text-align: left; white-space-collapse: preserve-breaks; background-color: rgb(43, 43, 49);&quot;&gt;Inicio: estructurar_datos_paises(datos)&lt;/span&gt;" style="ellipse;whiteSpace=wrap;html=1;strokeColor=#E07A5F;fontColor=#393C56;fillColor=#F2CC8F;labelBackgroundColor=none;rounded=0;" vertex="1" parent="1">
          <mxGeometry x="276" y="800" width="324" height="100" as="geometry" />
        </mxCell>
        <mxCell id="56zbXbjP5MMYhylMdoNp-56" value="" style="edgeStyle=orthogonalEdgeStyle;rounded=0;hachureGap=4;orthogonalLoop=1;jettySize=auto;html=1;strokeColor=#E07A5F;fontFamily=Architects Daughter;fontSource=https%3A%2F%2Ffonts.googleapis.com%2Fcss%3Ffamily%3DArchitects%2BDaughter;fontColor=default;fillColor=#F2CC8F;labelBackgroundColor=none;" edge="1" parent="1" source="56zbXbjP5MMYhylMdoNp-50" target="56zbXbjP5MMYhylMdoNp-54">
          <mxGeometry relative="1" as="geometry" />
        </mxCell>
        <mxCell id="56zbXbjP5MMYhylMdoNp-50" value="&lt;span style=&quot;color: rgb(250, 250, 252); font-family: system-ui, ui-sans-serif, -apple-system, BlinkMacSystemFont, sans-serif, Inter, NotoSansHans; font-size: 16px; font-style: normal; font-variant-ligatures: normal; font-variant-caps: normal; font-weight: 400; letter-spacing: 0.32px; orphans: 2; text-align: left; text-indent: 0px; text-transform: none; widows: 2; word-spacing: 0px; -webkit-text-stroke-width: 0px; white-space: pre-line; background-color: rgb(43, 43, 49); text-decoration-thickness: initial; text-decoration-style: initial; text-decoration-color: initial; float: none; display: inline !important;&quot;&gt;Para cada país en datos&lt;/span&gt;" style="rounded=0;whiteSpace=wrap;html=1;hachureGap=4;strokeColor=#E07A5F;fontFamily=Architects Daughter;fontSource=https%3A%2F%2Ffonts.googleapis.com%2Fcss%3Ffamily%3DArchitects%2BDaughter;fontColor=#393C56;fillColor=#F2CC8F;labelBackgroundColor=none;" vertex="1" parent="1">
          <mxGeometry x="342" y="940" width="192" height="40" as="geometry" />
        </mxCell>
        <mxCell id="56zbXbjP5MMYhylMdoNp-58" value="" style="edgeStyle=orthogonalEdgeStyle;rounded=0;hachureGap=4;orthogonalLoop=1;jettySize=auto;html=1;strokeColor=#E07A5F;fontFamily=Architects Daughter;fontSource=https%3A%2F%2Ffonts.googleapis.com%2Fcss%3Ffamily%3DArchitects%2BDaughter;fontColor=default;fillColor=#F2CC8F;labelBackgroundColor=none;" edge="1" parent="1" source="56zbXbjP5MMYhylMdoNp-54" target="56zbXbjP5MMYhylMdoNp-57">
          <mxGeometry relative="1" as="geometry" />
        </mxCell>
        <mxCell id="56zbXbjP5MMYhylMdoNp-54" value="&lt;span style=&quot;color: rgb(250, 250, 252); font-family: system-ui, ui-sans-serif, -apple-system, BlinkMacSystemFont, sans-serif, Inter, NotoSansHans; font-size: 16px; letter-spacing: 0.32px; text-align: left; white-space-collapse: preserve-breaks; background-color: rgb(43, 43, 49);&quot;&gt;Extraer nombre común: &lt;/span&gt;&lt;code style=&quot;--tw-border-spacing-x: 0; --tw-border-spacing-y: 0; --tw-translate-x: 0; --tw-translate-y: 0; --tw-rotate: 0; --tw-skew-x: 0; --tw-skew-y: 0; --tw-scale-x: 1; --tw-scale-y: 1; --tw-pan-x: ; --tw-pan-y: ; --tw-pinch-zoom: ; --tw-scroll-snap-strictness: proximity; --tw-gradient-from-position: ; --tw-gradient-via-position: ; --tw-gradient-to-position: ; --tw-ordinal: ; --tw-slashed-zero: ; --tw-numeric-figure: ; --tw-numeric-spacing: ; --tw-numeric-fraction: ; --tw-ring-inset: ; --tw-ring-offset-width: 0px; --tw-ring-offset-color: #fff; --tw-ring-color: rgb(59 130 246 / .5); --tw-ring-offset-shadow: 0 0 #0000; --tw-ring-shadow: 0 0 #0000; --tw-shadow: 0 0 #0000; --tw-shadow-colored: 0 0 #0000; --tw-blur: ; --tw-brightness: ; --tw-contrast: ; --tw-grayscale: ; --tw-hue-rotate: ; --tw-invert: ; --tw-saturate: ; --tw-sepia: ; --tw-drop-shadow: ; --tw-backdrop-blur: ; --tw-backdrop-brightness: ; --tw-backdrop-contrast: ; --tw-backdrop-grayscale: ; --tw-backdrop-hue-rotate: ; --tw-backdrop-invert: ; --tw-backdrop-opacity: ; --tw-backdrop-saturate: ; --tw-backdrop-sepia: ; --tw-contain-size: ; --tw-contain-layout: ; --tw-contain-paint: ; --tw-contain-style: ; box-sizing: border-box; border-width: 0px; border-style: solid; border-color: rgb(227, 227, 227); font-family: ui-monospace, SFMono-Regular, Menlo, Monaco, Consolas, &amp;quot;Liberation Mono&amp;quot;, &amp;quot;Courier New&amp;quot;, monospace; font-feature-settings: normal; font-variation-settings: normal; font-size: 0.8em; overflow-x: auto; width: auto; position: relative; z-index: 9; cursor: pointer; color: rgb(235, 87, 87); padding: 3px 8px; font-weight: 600; margin: 12px 0px; border-radius: 0.375rem; --tw-bg-opacity: 1; background-color: rgb(51, 51, 51); letter-spacing: 0.32px; text-align: left; white-space-collapse: preserve-breaks;&quot; class=&quot;codespan cursor-pointer z-[9] relative&quot;&gt;pais[&#39;name&#39;][&#39;common&#39;]&lt;/code&gt;" style="rounded=0;whiteSpace=wrap;html=1;hachureGap=4;strokeColor=#E07A5F;fontFamily=Architects Daughter;fontSource=https%3A%2F%2Ffonts.googleapis.com%2Fcss%3Ffamily%3DArchitects%2BDaughter;fontColor=#393C56;fillColor=#F2CC8F;labelBackgroundColor=none;" vertex="1" parent="1">
          <mxGeometry x="327.5" y="1020" width="221" height="50" as="geometry" />
        </mxCell>
        <mxCell id="56zbXbjP5MMYhylMdoNp-60" value="" style="edgeStyle=orthogonalEdgeStyle;rounded=0;hachureGap=4;orthogonalLoop=1;jettySize=auto;html=1;strokeColor=#E07A5F;fontFamily=Architects Daughter;fontSource=https%3A%2F%2Ffonts.googleapis.com%2Fcss%3Ffamily%3DArchitects%2BDaughter;fontColor=default;fillColor=#F2CC8F;labelBackgroundColor=none;" edge="1" parent="1" source="56zbXbjP5MMYhylMdoNp-57" target="56zbXbjP5MMYhylMdoNp-59">
          <mxGeometry relative="1" as="geometry" />
        </mxCell>
        <mxCell id="56zbXbjP5MMYhylMdoNp-57" value="&lt;span style=&quot;color: rgb(250, 250, 252); font-family: system-ui, ui-sans-serif, -apple-system, BlinkMacSystemFont, sans-serif, Inter, NotoSansHans; font-size: 16px; letter-spacing: 0.32px; text-align: left; white-space-collapse: preserve-breaks; background-color: rgb(43, 43, 49);&quot;&gt;Usar &lt;/span&gt;&lt;code style=&quot;--tw-border-spacing-x: 0; --tw-border-spacing-y: 0; --tw-translate-x: 0; --tw-translate-y: 0; --tw-rotate: 0; --tw-skew-x: 0; --tw-skew-y: 0; --tw-scale-x: 1; --tw-scale-y: 1; --tw-pan-x: ; --tw-pan-y: ; --tw-pinch-zoom: ; --tw-scroll-snap-strictness: proximity; --tw-gradient-from-position: ; --tw-gradient-via-position: ; --tw-gradient-to-position: ; --tw-ordinal: ; --tw-slashed-zero: ; --tw-numeric-figure: ; --tw-numeric-spacing: ; --tw-numeric-fraction: ; --tw-ring-inset: ; --tw-ring-offset-width: 0px; --tw-ring-offset-color: #fff; --tw-ring-color: rgb(59 130 246 / .5); --tw-ring-offset-shadow: 0 0 #0000; --tw-ring-shadow: 0 0 #0000; --tw-shadow: 0 0 #0000; --tw-shadow-colored: 0 0 #0000; --tw-blur: ; --tw-brightness: ; --tw-contrast: ; --tw-grayscale: ; --tw-hue-rotate: ; --tw-invert: ; --tw-saturate: ; --tw-sepia: ; --tw-drop-shadow: ; --tw-backdrop-blur: ; --tw-backdrop-brightness: ; --tw-backdrop-contrast: ; --tw-backdrop-grayscale: ; --tw-backdrop-hue-rotate: ; --tw-backdrop-invert: ; --tw-backdrop-opacity: ; --tw-backdrop-saturate: ; --tw-backdrop-sepia: ; --tw-contain-size: ; --tw-contain-layout: ; --tw-contain-paint: ; --tw-contain-style: ; box-sizing: border-box; border-width: 0px; border-style: solid; border-color: rgb(227, 227, 227); font-family: ui-monospace, SFMono-Regular, Menlo, Monaco, Consolas, &amp;quot;Liberation Mono&amp;quot;, &amp;quot;Courier New&amp;quot;, monospace; font-feature-settings: normal; font-variation-settings: normal; font-size: 0.8em; overflow-x: auto; width: auto; position: relative; z-index: 9; cursor: pointer; color: rgb(235, 87, 87); padding: 3px 8px; font-weight: 600; margin: 12px 0px; border-radius: 0.375rem; --tw-bg-opacity: 1; background-color: rgb(51, 51, 51); letter-spacing: 0.32px; text-align: left; white-space-collapse: preserve-breaks;&quot; class=&quot;codespan cursor-pointer z-[9] relative&quot;&gt;.get()&lt;/code&gt;&lt;span style=&quot;color: rgb(250, 250, 252); font-family: system-ui, ui-sans-serif, -apple-system, BlinkMacSystemFont, sans-serif, Inter, NotoSansHans; font-size: 16px; letter-spacing: 0.32px; text-align: left; white-space-collapse: preserve-breaks; background-color: rgb(43, 43, 49);&quot;&gt; para población y área (default=0)&lt;/span&gt;" style="rounded=1;whiteSpace=wrap;html=1;hachureGap=4;strokeColor=#E07A5F;fontFamily=Architects Daughter;fontSource=https%3A%2F%2Ffonts.googleapis.com%2Fcss%3Ffamily%3DArchitects%2BDaughter;fontColor=#393C56;fillColor=#F2CC8F;labelBackgroundColor=none;" vertex="1" parent="1">
          <mxGeometry x="262.5" y="1109" width="351" height="41" as="geometry" />
        </mxCell>
        <mxCell id="56zbXbjP5MMYhylMdoNp-62" value="" style="edgeStyle=orthogonalEdgeStyle;rounded=0;hachureGap=4;orthogonalLoop=1;jettySize=auto;html=1;strokeColor=#E07A5F;fontFamily=Architects Daughter;fontSource=https%3A%2F%2Ffonts.googleapis.com%2Fcss%3Ffamily%3DArchitects%2BDaughter;fontColor=default;fillColor=#F2CC8F;labelBackgroundColor=none;" edge="1" parent="1" source="56zbXbjP5MMYhylMdoNp-59" target="56zbXbjP5MMYhylMdoNp-61">
          <mxGeometry relative="1" as="geometry" />
        </mxCell>
        <mxCell id="56zbXbjP5MMYhylMdoNp-59" value="&lt;span style=&quot;color: rgb(250, 250, 252); font-family: system-ui, ui-sans-serif, -apple-system, BlinkMacSystemFont, sans-serif, Inter, NotoSansHans; font-size: 16px; letter-spacing: 0.32px; text-align: left; white-space-collapse: preserve-breaks; background-color: rgb(43, 43, 49);&quot;&gt;Extraer región y subregión (default=&#39;N/A&#39;)&lt;/span&gt;" style="rounded=1;whiteSpace=wrap;html=1;hachureGap=4;strokeColor=#E07A5F;fontFamily=Architects Daughter;fontSource=https%3A%2F%2Ffonts.googleapis.com%2Fcss%3Ffamily%3DArchitects%2BDaughter;fontColor=#393C56;fillColor=#F2CC8F;labelBackgroundColor=none;" vertex="1" parent="1">
          <mxGeometry x="272" y="1190" width="332" height="50" as="geometry" />
        </mxCell>
        <mxCell id="56zbXbjP5MMYhylMdoNp-64" value="" style="edgeStyle=orthogonalEdgeStyle;rounded=0;orthogonalLoop=1;jettySize=auto;html=1;strokeColor=#E07A5F;fontColor=#393C56;fillColor=#F2CC8F;" edge="1" parent="1" source="56zbXbjP5MMYhylMdoNp-61" target="56zbXbjP5MMYhylMdoNp-63">
          <mxGeometry relative="1" as="geometry" />
        </mxCell>
        <mxCell id="56zbXbjP5MMYhylMdoNp-61" value="&lt;span style=&quot;color: rgb(250, 250, 252); font-family: system-ui, ui-sans-serif, -apple-system, BlinkMacSystemFont, sans-serif, Inter, NotoSansHans; font-size: 16px; letter-spacing: 0.32px; text-align: left; white-space-collapse: preserve-breaks; background-color: rgb(43, 43, 49);&quot;&gt;Convertir idiomas en cadena separada por comas (ej.: &#39;Español, Inglés&#39;)&lt;/span&gt;" style="rounded=1;whiteSpace=wrap;html=1;hachureGap=4;strokeColor=#E07A5F;fontFamily=Architects Daughter;fontSource=https%3A%2F%2Ffonts.googleapis.com%2Fcss%3Ffamily%3DArchitects%2BDaughter;fontColor=#393C56;fillColor=#F2CC8F;labelBackgroundColor=none;" vertex="1" parent="1">
          <mxGeometry x="262.5" y="1280" width="351" height="60" as="geometry" />
        </mxCell>
        <mxCell id="56zbXbjP5MMYhylMdoNp-63" value="&lt;span style=&quot;color: rgb(250, 250, 252); font-family: system-ui, ui-sans-serif, -apple-system, BlinkMacSystemFont, sans-serif, Inter, NotoSansHans; font-size: 16px; letter-spacing: 0.32px; text-align: left; white-space-collapse: preserve-breaks; background-color: rgb(43, 43, 49);&quot;&gt;Formatear monedas como &#39;Código (Nombre)&#39; (ej.: &#39;COP (Peso colombiano)&#39;)&lt;/span&gt;" style="rounded=1;whiteSpace=wrap;html=1;strokeColor=#E07A5F;fontColor=#393C56;fillColor=#F2CC8F;" vertex="1" parent="1">
          <mxGeometry x="283.5" y="1370" width="311" height="60" as="geometry" />
        </mxCell>
      </root>
    </mxGraphModel>
  </diagram>
</mxfile>
